# xmcd
#
# Track frame offsets:
#	150
#	22505
#	44855
#	61807
#	91365
#	115050
#	137440
#	166207
#	187757
#	201257
#	223877
#	244662
#
# Disc length: 3647 seconds
#
# Revision: 1
# Processed by: cddbd v1.4PL0 Copyright (c) Steve Scherf et al.
# Submitted via: audiograbber 1.81.03
#
DISCID=9d0e3d0c
DTITLE=John Pisano - Conversation Pieces
DYEAR=1997
DGENRE=Jazz
TTITLE0=John Paisano and Joe Diorio - You Were Meant for Me
TTITLE1=John Paisano and Joe Diorio - Blues for Joe
TTITLE2=John Paisano and Gene Bertoncini - Just Friends
TTITLE3=John Paisano and Joe Diorio - AM-PM
TTITLE4=John Paisano and Phil Upchurch - Ribbit
TTITLE5=John Paisano and Lee Ritenour - Jo-Wes
TTITLE6=John Paisano and Lee Ritenour - Whisper Not
TTITLE7=John Paisano and Ted Greene - Body and Soul
TTITLE8=John Paisano and Ted Greene - When I Fall in Love
TTITLE9=John Paisano and Dori Caymmi - I'll Follow My Secret Heart
TTITLE10=John Paisano and Gene Bertoncini - Blues in F
TTITLE11=John Paisano and Dori Caymmi - Captain Bacardi
EXTD=
EXTT0=
EXTT1=
EXTT2=
EXTT3=
EXTT4=
EXTT5=
EXTT6=
EXTT7=
EXTT8=
EXTT9=
EXTT10=
EXTT11=
PLAYORDER=
